<svg xmlns="http://www.w3.org/2000/svg" viewBox="0 0 512 512" width="512" height="512">
  <defs>
    <linearGradient id="bg" x1="0%" y1="0%" x2="100%" y2="100%">
      <stop offset="0%" style="stop-color:#2563eb"/>
      <stop offset="100%" style="stop-color:#4f46e5"/>
    </linearGradient>
  </defs>
  <!-- Background -->
  <rect width="512" height="512" rx="96" fill="url(#bg)"/>
  <!-- Suitcase body -->
  <rect x="136" y="200" width="240" height="180" rx="24" fill="none" stroke="white" stroke-width="20"/>
  <!-- Suitcase handle -->
  <path d="M200 200 L200 160 Q200 140 220 140 L292 140 Q312 140 312 160 L312 200" fill="none" stroke="white" stroke-width="18" stroke-linecap="round"/>
  <!-- Suitcase middle band -->
  <line x1="136" y1="290" x2="376" y2="290" stroke="white" stroke-width="12"/>
  <!-- Suitcase clasp -->
  <rect x="240" y="278" width="32" height="24" rx="4" fill="white"/>
  <!-- Wheels -->
  <circle cx="190" cy="395" r="14" fill="white"/>
  <circle cx="322" cy="395" r="14" fill="white"/>
  <!-- Small airplane top-right -->
  <g transform="translate(370, 100) rotate(-30) scale(0.7)">
    <path d="M0 0 L-20 10 L-50 5 L-20 0 L-50 -5 L-20 -10 Z" fill="white" opacity="0.9"/>
    <path d="M-30 0 L-35 8 L-45 6 L-35 0 L-45 -6 L-35 -8 Z" fill="white" opacity="0.9"/>
  </g>
</svg>
